<svg width="100%" height="100%" style="overflow:visible;" preserveAspectRatio="none" viewBox="0 0 100 32" fill="none" xmlns="http://www.w3.org/2000/svg"><path d="M9.00375 8.45459H11.6387V17.9574C11.6387 18.9991 11.3925 19.9153 10.9001 20.706C10.4124 21.4967 9.72582 22.1146 8.8404 22.5597C7.95498 23 6.92042 23.2202 5.73671 23.2202C4.54826 23.2202 3.51133 23 2.62591 22.5597C1.74049 22.1146 1.05394 21.4967 0.566251 20.706C0.0785616 19.9153 -0.165283 18.9991 -0.165283 17.9574V8.45459H2.46966V17.7373C2.46966 18.3433 2.60224 18.8831 2.86739 19.3566C3.13727 19.8301 3.51606 20.2017 4.00375 20.4716C4.49144 20.7368 5.06909 20.8694 5.73671 20.8694C6.40432 20.8694 6.98197 20.7368 7.46966 20.4716C7.96208 20.2017 8.34087 19.8301 8.60602 19.3566C8.87118 18.8831 9.00375 18.3433 9.00375 17.7373V8.45459Z" fill="#101828"/><path d="M16.9601 16.608V23H14.389V12.091H16.8464V13.9446H16.9743C17.2252 13.3339 17.6253 12.8485 18.1746 12.4887C18.7285 12.1288 19.4127 11.9489 20.2271 11.9489C20.98 11.9489 21.6357 12.1099 22.1944 12.4319C22.7579 12.7538 23.1935 13.2202 23.5013 13.831C23.8138 14.4418 23.9676 15.1828 23.9629 16.054V23H21.3919V16.4517C21.3919 15.7226 21.2025 15.152 20.8237 14.7401C20.4497 14.3282 19.9312 14.1222 19.2683 14.1222C18.8185 14.1222 18.4184 14.2216 18.068 14.4205C17.7224 14.6146 17.4501 14.8964 17.2513 15.2657C17.0571 15.635 16.9601 16.0824 16.9601 16.608Z" fill="#101828"/><path d="M32.024 12.091V14.0796H25.7527V12.091H32.024ZM27.301 9.47732H29.872V19.7188C29.872 20.0644 29.9241 20.3296 30.0283 20.5142C30.1372 20.6942 30.2792 20.8173 30.4544 20.8836C30.6296 20.9499 30.8237 20.983 31.0368 20.983C31.1978 20.983 31.3445 20.9712 31.4771 20.9475C31.6144 20.9238 31.7186 20.9025 31.7896 20.8836L32.2229 22.8935C32.0855 22.9409 31.8891 22.9929 31.6334 23.0498C31.3824 23.1066 31.0747 23.1397 30.7101 23.1492C30.0661 23.1681 29.4861 23.0711 28.97 22.858C28.4539 22.6402 28.0444 22.304 27.7413 21.8495C27.443 21.3949 27.2962 20.8267 27.301 20.1449V9.47732Z" fill="#101828"/><path d="M34.1742 23V12.091H36.7452V23H34.1742ZM35.4668 10.5427C35.0596 10.5427 34.7092 10.4077 34.4157 10.1378C34.1221 9.86321 33.9753 9.53413 33.9753 9.15061C33.9753 8.76235 34.1221 8.43328 34.4157 8.1634C34.7092 7.88878 35.0596 7.75146 35.4668 7.75146C35.8788 7.75146 36.2291 7.88878 36.518 8.1634C36.8115 8.43328 36.9583 8.76235 36.9583 9.15061C36.9583 9.53413 36.8115 9.86321 36.518 10.1378C36.2291 10.4077 35.8788 10.5427 35.4668 10.5427Z" fill="#101828"/><path d="M44.8365 12.091V14.0796H38.5652V12.091H44.8365ZM40.1135 9.47732H42.6845V19.7188C42.6845 20.0644 42.7366 20.3296 42.8408 20.5142C42.9497 20.6942 43.0917 20.8173 43.2669 20.8836C43.4421 20.9499 43.6362 20.983 43.8493 20.983C44.0103 20.983 44.157 20.9712 44.2896 20.9475C44.4269 20.9238 44.5311 20.9025 44.6021 20.8836L45.0354 22.8935C44.898 22.9409 44.7016 22.9929 44.4459 23.0498C44.1949 23.1066 43.8872 23.1397 43.5226 23.1492C42.8786 23.1681 42.2986 23.0711 41.7825 22.858C41.2664 22.6402 40.8569 22.304 40.5538 21.8495C40.2555 21.3949 40.1087 20.8267 40.1135 20.1449V9.47732Z" fill="#101828"/><path d="M49.7921 8.45459V23H47.2211V8.45459H49.7921Z" fill="#101828"/><path d="M57.2655 23.2131C56.1717 23.2131 55.2271 22.9858 54.4317 22.5313C53.6409 22.072 53.0325 21.4233 52.6064 20.5853C52.1802 19.7425 51.9672 18.7505 51.9672 17.6094C51.9672 16.4873 52.1802 15.5024 52.6064 14.6549C53.0373 13.8026 53.6386 13.1397 54.4104 12.6662C55.1821 12.188 56.0889 11.9489 57.1305 11.9489C57.8029 11.9489 58.4373 12.0578 59.0339 12.2756C59.6353 12.4887 60.1656 12.8201 60.6248 13.2699C61.0889 13.7197 61.4534 14.2927 61.7186 14.9887C61.9837 15.68 62.1163 16.5038 62.1163 17.4603V18.2486H53.1746V16.5157H59.6518C59.6471 16.0232 59.5406 15.5853 59.3322 15.2017C59.1239 14.8135 58.8327 14.5081 58.4587 14.2856C58.0893 14.063 57.6585 13.9517 57.166 13.9517C56.6405 13.9517 56.1788 14.0796 55.7811 14.3353C55.3834 14.5862 55.0732 14.9177 54.8507 15.3296C54.6329 15.7368 54.5216 16.1842 54.5169 16.6719V18.1847C54.5169 18.8192 54.6329 19.3637 54.8649 19.8182C55.0969 20.268 55.4212 20.6137 55.8379 20.8552C56.2546 21.0919 56.7423 21.2103 57.301 21.2103C57.675 21.2103 58.0136 21.1582 58.3166 21.054C58.6196 20.9451 58.8824 20.7865 59.105 20.5782C59.3275 20.3698 59.4956 20.1118 59.6092 19.804L62.0098 20.0739C61.8583 20.7084 61.5695 21.2624 61.1433 21.7358C60.7219 22.2046 60.1821 22.5692 59.524 22.8296C58.8659 23.0853 58.113 23.2131 57.2655 23.2131Z" fill="#101828"/><path d="M68.3397 23.1918C67.4827 23.1918 66.7156 22.9716 66.0386 22.5313C65.3615 22.091 64.8264 21.4517 64.4334 20.6137C64.0404 19.7756 63.8439 18.7576 63.8439 17.5597C63.8439 16.3476 64.0428 15.3249 64.4405 14.4915C64.843 13.6535 65.3851 13.0214 66.067 12.5952C66.7488 12.1643 67.5087 11.9489 68.3468 11.9489C68.986 11.9489 69.5116 12.0578 69.9235 12.2756C70.3354 12.4887 70.6621 12.7467 70.9036 13.0498C71.1451 13.3481 71.3321 13.6298 71.4647 13.8949H71.5712V8.45459H74.1493V23H71.6209V21.2813H71.4647C71.3321 21.5464 71.1404 21.8282 70.8894 22.1265C70.6385 22.42 70.307 22.671 69.8951 22.8793C69.4831 23.0876 68.9647 23.1918 68.3397 23.1918ZM69.057 21.0824C69.6015 21.0824 70.0655 20.9357 70.4491 20.6421C70.8326 20.3438 71.1238 19.9295 71.3226 19.3992C71.5215 18.8689 71.6209 18.251 71.6209 17.5455C71.6209 16.84 71.5215 16.2268 71.3226 15.706C71.1285 15.1852 70.8397 14.7803 70.4562 14.4915C70.0774 14.2027 69.611 14.0583 69.057 14.0583C68.4841 14.0583 68.0059 14.2074 67.6224 14.5057C67.2388 14.804 66.95 15.216 66.7559 15.7415C66.5618 16.2671 66.4647 16.8684 66.4647 17.5455C66.4647 18.2273 66.5618 18.8357 66.7559 19.3708C66.9547 19.9011 67.2459 20.3201 67.6295 20.6279C68.0177 20.9309 68.4936 21.0824 69.057 21.0824Z" fill="#101828"/><path d="M91.1327 8.45459H93.7676V17.9574C93.7676 18.9991 93.5214 19.9153 93.029 20.706C92.5413 21.4967 91.8547 22.1146 90.9693 22.5597C90.0839 23 89.0493 23.2202 87.8656 23.2202C86.6772 23.2202 85.6402 23 84.7548 22.5597C83.8694 22.1146 83.1828 21.4967 82.6952 20.706C82.2075 19.9153 81.9636 18.9991 81.9636 17.9574V8.45459H84.5986V17.7373C84.5986 18.3433 84.7311 18.8831 84.9963 19.3566C85.2662 19.8301 85.645 20.2017 86.1327 20.4716C86.6203 20.7368 87.198 20.8694 87.8656 20.8694C88.5332 20.8694 89.1109 20.7368 89.5986 20.4716C90.091 20.2017 90.4698 19.8301 90.7349 19.3566C91.0001 18.8831 91.1327 18.3433 91.1327 17.7373V8.45459Z" fill="#101828"/><path d="M99.2665 8.45459V23H96.6316V8.45459H99.2665Z" fill="#101828"/></svg>