<svg width="100%" height="100%" style="overflow:visible;" preserveAspectRatio="none" viewBox="0 0 85.52 17.7" fill="none" xmlns="http://www.w3.org/2000/svg"><path d="M15.2371 17.0667C14.8178 17.5894 14.306 17.9876 13.7017 18.2614C13.1098 18.5352 12.4562 18.6721 11.7409 18.6721C10.779 18.6721 9.90964 18.4605 9.13272 18.0374C8.35581 17.6267 7.4679 16.8925 6.46901 15.8347C5.29747 15.6854 4.24925 15.3059 3.32435 14.6961C2.41178 14.0863 1.69653 13.3023 1.17858 12.3441C0.672972 11.3734 0.420166 10.3032 0.420166 9.13341C0.420166 7.85163 0.7223 6.70052 1.32657 5.68007C1.94317 4.64719 2.78791 3.8383 3.86079 3.25341C4.94601 2.66852 6.16071 2.37608 7.5049 2.37608C8.84909 2.37608 10.0576 2.66852 11.1305 3.25341C12.2034 3.8383 13.0481 4.64719 13.6647 5.68007C14.2813 6.70052 14.5896 7.85163 14.5896 9.13341C14.5896 10.6516 14.1642 11.9832 13.3133 13.1281C12.4747 14.273 11.3586 15.0694 9.96513 15.5174C10.2734 15.841 10.5694 16.0712 10.853 16.2081C11.149 16.3574 11.4635 16.4321 11.7964 16.4321C12.598 16.4321 13.3009 16.1085 13.9052 15.4614L15.2371 17.0667ZM3.45384 9.13341C3.45384 9.9423 3.62649 10.6641 3.97178 11.2987C4.32941 11.9334 4.81652 12.4312 5.43312 12.7921C6.04972 13.1405 6.74031 13.3147 7.5049 13.3147C8.26948 13.3147 8.96007 13.1405 9.57667 12.7921C10.1933 12.4312 10.6742 11.9334 11.0195 11.2987C11.3771 10.6641 11.556 9.9423 11.556 9.13341C11.556 8.32452 11.3771 7.60274 11.0195 6.96807C10.6742 6.33341 10.1933 5.84185 9.57667 5.49341C8.96007 5.13252 8.26948 4.95208 7.5049 4.95208C6.74031 4.95208 6.04972 5.13252 5.43312 5.49341C4.81652 5.84185 4.32941 6.33341 3.97178 6.96807C3.62649 7.60274 3.45384 8.32452 3.45384 9.13341Z" fill="#D6BBFB"/><path d="M26.6642 5.62407V15.6667H23.9265V14.4721C23.5442 14.9076 23.0879 15.2436 22.5576 15.4801C22.0274 15.7041 21.4539 15.8161 20.8373 15.8161C19.5301 15.8161 18.4942 15.4365 17.7297 14.6774C16.9651 13.9183 16.5828 12.7921 16.5828 11.2987V5.62407H19.4685V10.8694C19.4685 12.4872 20.1406 13.2961 21.4848 13.2961C22.1753 13.2961 22.7303 13.0721 23.1496 12.6241C23.5689 12.1636 23.7785 11.4854 23.7785 10.5894V5.62407H26.6642Z" fill="#D6BBFB"/><path d="M34.0731 15.8161C33.0249 15.8161 32.0815 15.5983 31.2429 15.1627C30.4166 14.7147 29.7692 14.0987 29.3006 13.3147C28.832 12.5307 28.5977 11.641 28.5977 10.6454C28.5977 9.64985 28.832 8.76007 29.3006 7.97607C29.7692 7.19207 30.4166 6.5823 31.2429 6.14674C32.0815 5.69874 33.0249 5.47474 34.0731 5.47474C35.1213 5.47474 36.0585 5.69874 36.8848 6.14674C37.711 6.5823 38.3584 7.19207 38.8271 7.97607C39.2957 8.76007 39.53 9.64985 39.53 10.6454C39.53 11.641 39.2957 12.5307 38.8271 13.3147C38.3584 14.0987 37.711 14.7147 36.8848 15.1627C36.0585 15.5983 35.1213 15.8161 34.0731 15.8161ZM34.0731 13.4267C34.813 13.4267 35.4173 13.1779 35.8859 12.6801C36.3668 12.1699 36.6073 11.4916 36.6073 10.6454C36.6073 9.79918 36.3668 9.12719 35.8859 8.62941C35.4173 8.11919 34.813 7.86407 34.0731 7.86407C33.3332 7.86407 32.7227 8.11919 32.2418 8.62941C31.7608 9.12719 31.5204 9.79918 31.5204 10.6454C31.5204 11.4916 31.7608 12.1699 32.2418 12.6801C32.7227 13.1779 33.3332 13.4267 34.0731 13.4267Z" fill="#D6BBFB"/><path d="M47.8776 15.1814C47.594 15.393 47.2425 15.5547 46.8232 15.6667C46.4163 15.7663 45.9847 15.8161 45.5284 15.8161C44.3445 15.8161 43.4258 15.5112 42.7722 14.9014C42.1309 14.2916 41.8103 13.3956 41.8103 12.2134V8.08807H40.275V5.84807H41.8103V3.40274H44.696V5.84807H47.1747V8.08807H44.696V12.1761C44.696 12.5992 44.8008 12.929 45.0104 13.1654C45.2324 13.3894 45.5407 13.5014 45.9353 13.5014C46.3916 13.5014 46.7801 13.377 47.1007 13.1281L47.8776 15.1814Z" fill="#D6BBFB"/><path d="M49.4975 5.62407H52.3832V15.6667H49.4975V5.62407ZM50.9404 4.22407C50.4101 4.22407 49.9785 4.06852 49.6455 3.75741C49.3125 3.4463 49.146 3.06052 49.146 2.60007C49.146 2.13963 49.3125 1.75385 49.6455 1.44274C49.9785 1.13163 50.4101 0.976074 50.9404 0.976074C51.4706 0.976074 51.9022 1.12541 52.2352 1.42408C52.5682 1.72274 52.7347 2.09608 52.7347 2.54408C52.7347 3.02941 52.5682 3.43385 52.2352 3.75741C51.9022 4.06852 51.4706 4.22407 50.9404 4.22407Z" fill="#D6BBFB"/><path d="M64.8098 10.6827C64.8098 10.7201 64.7913 10.9814 64.7543 11.4667H57.2256C57.3613 12.089 57.6819 12.5805 58.1875 12.9414C58.6931 13.3023 59.3221 13.4827 60.0743 13.4827C60.5923 13.4827 61.0485 13.4081 61.4432 13.2587C61.8501 13.097 62.2262 12.8481 62.5715 12.5121L64.1069 14.1921C63.1696 15.2747 61.8008 15.8161 60.0003 15.8161C58.8781 15.8161 57.8854 15.5983 57.0221 15.1627C56.1589 14.7147 55.493 14.0987 55.0244 13.3147C54.5557 12.5307 54.3214 11.641 54.3214 10.6454C54.3214 9.6623 54.5496 8.77874 55.0059 7.99474C55.4745 7.1983 56.1096 6.5823 56.9112 6.14674C57.7251 5.69874 58.6315 5.47474 59.6304 5.47474C60.6046 5.47474 61.4863 5.6863 62.2756 6.10941C63.0648 6.53252 63.6814 7.1423 64.1254 7.93874C64.5817 8.72274 64.8098 9.63741 64.8098 10.6827ZM59.6489 7.67741C58.9953 7.67741 58.4465 7.86407 58.0025 8.23741C57.5586 8.61074 57.2873 9.12096 57.1886 9.76807H62.0906C61.9919 9.13341 61.7206 8.62941 61.2767 8.25608C60.8327 7.8703 60.2901 7.67741 59.6489 7.67741Z" fill="#D6BBFB"/><path d="M72.7798 5.47474C74.013 5.47474 75.0058 5.84808 75.758 6.59474C76.5226 7.34141 76.9049 8.44896 76.9049 9.91741V15.6667H74.0192V10.3654C74.0192 9.56896 73.8466 8.97785 73.5013 8.59207C73.156 8.19385 72.6565 7.99474 72.0029 7.99474C71.2753 7.99474 70.6957 8.22496 70.2641 8.68541C69.8325 9.13341 69.6167 9.80541 69.6167 10.7014V15.6667H66.731V5.62407H69.4872V6.80007C69.8695 6.37696 70.3443 6.05341 70.9115 5.82941C71.4788 5.59296 72.1016 5.47474 72.7798 5.47474Z" fill="#D6BBFB"/><path d="M85.9394 15.1814C85.6558 15.393 85.3043 15.5547 84.885 15.6667C84.4781 15.7663 84.0465 15.8161 83.5902 15.8161C82.4063 15.8161 81.4876 15.5112 80.834 14.9014C80.1927 14.2916 79.8721 13.3956 79.8721 12.2134V8.08807H78.3367V5.84807H79.8721V3.40274H82.7578V5.84807H85.2365V8.08807H82.7578V12.1761C82.7578 12.5992 82.8626 12.929 83.0722 13.1654C83.2942 13.3894 83.6025 13.5014 83.9971 13.5014C84.4534 13.5014 84.8419 13.377 85.1625 13.1281L85.9394 15.1814Z" fill="#D6BBFB"/></svg>