<svg width="100%" height="100%" style="overflow:visible;" preserveAspectRatio="none" viewBox="0 0 83.35 18.16" fill="none" xmlns="http://www.w3.org/2000/svg"><path d="M5.29307 14.8534C4.29418 14.8534 3.32611 14.7103 2.38888 14.4241C1.46398 14.1379 0.73023 13.7583 0.187622 13.2854L1.02003 11.4001C1.55031 11.8232 2.19774 12.1717 2.96232 12.4454C3.73924 12.7068 4.51615 12.8374 5.29307 12.8374C6.25496 12.8374 6.97022 12.6819 7.43883 12.3708C7.91978 12.0597 8.16026 11.649 8.16026 11.1388C8.16026 10.7654 8.0246 10.4605 7.7533 10.2241C7.49433 9.97522 7.16136 9.78233 6.75441 9.64544C6.34745 9.50855 5.79251 9.35299 5.08959 9.17877C4.10303 8.94233 3.30145 8.70588 2.68485 8.46944C2.08058 8.23299 1.55647 7.86588 1.11252 7.3681C0.680902 6.85788 0.465092 6.17344 0.465092 5.31477C0.465092 4.59299 0.656238 3.93966 1.03853 3.35477C1.43315 2.75744 2.01892 2.28455 2.79584 1.9361C3.58509 1.58766 4.54698 1.41344 5.68153 1.41344C6.47077 1.41344 7.24769 1.51299 8.01227 1.7121C8.77686 1.91121 9.43662 2.19744 9.99156 2.57077L9.23314 4.4561C8.66587 4.1201 8.07393 3.86499 7.45733 3.69077C6.84073 3.51655 6.24263 3.42944 5.66303 3.42944C4.71346 3.42944 4.00437 3.59121 3.53576 3.91477C3.07947 4.23833 2.85133 4.66766 2.85133 5.20277C2.85133 5.5761 2.98082 5.88099 3.23979 6.11744C3.51109 6.35388 3.85022 6.54055 4.25718 6.67744C4.66414 6.81433 5.21908 6.96988 5.922 7.1441C6.88389 7.3681 7.67314 7.60455 8.28974 7.85344C8.90634 8.08988 9.43045 8.45699 9.86207 8.95477C10.306 9.45255 10.528 10.1245 10.528 10.9708C10.528 11.6925 10.3307 12.3459 9.93606 12.9308C9.55377 13.5157 8.968 13.9823 8.17875 14.3308C7.38951 14.6792 6.42761 14.8534 5.29307 14.8534Z" fill="#D6BBFB"/><path d="M12.6905 4.69877H15.0028V14.6668H12.6905V4.69877ZM13.8559 3.0561C13.4366 3.0561 13.0852 2.92544 12.8015 2.6641C12.5179 2.39033 12.3761 2.05433 12.3761 1.6561C12.3761 1.25788 12.5179 0.928103 12.8015 0.666769C13.0852 0.392992 13.4366 0.256104 13.8559 0.256104C14.2752 0.256104 14.6267 0.38677 14.9103 0.648103C15.1939 0.896992 15.3357 1.21433 15.3357 1.6001C15.3357 2.01077 15.1939 2.35921 14.9103 2.64544C14.639 2.91921 14.2875 3.0561 13.8559 3.0561Z" fill="#D6BBFB"/><path d="M21.0898 14.7974C20.2882 14.7974 19.5051 14.6917 18.7405 14.4801C17.9759 14.2685 17.3655 14.001 16.9092 13.6774L17.7971 11.9041C18.2411 12.2028 18.7714 12.4454 19.388 12.6321C20.0169 12.8063 20.6335 12.8934 21.2378 12.8934C22.6189 12.8934 23.3095 12.5263 23.3095 11.7921C23.3095 11.4437 23.1307 11.201 22.7731 11.0641C22.4278 10.9272 21.8667 10.7965 21.0898 10.6721C20.2759 10.5477 19.6099 10.4045 19.092 10.2428C18.5864 10.081 18.1424 9.80099 17.7601 9.40277C17.3902 8.9921 17.2052 8.42588 17.2052 7.7041C17.2052 6.75833 17.5937 6.00544 18.3706 5.44544C19.1598 4.87299 20.2204 4.58677 21.5522 4.58677C22.2305 4.58677 22.9087 4.66766 23.587 4.82944C24.2653 4.97877 24.8202 5.1841 25.2518 5.44544L24.3639 7.21877C23.5253 6.72099 22.5819 6.4721 21.5337 6.4721C20.8555 6.4721 20.3375 6.57788 19.9799 6.78944C19.6346 6.98855 19.4619 7.2561 19.4619 7.5921C19.4619 7.96544 19.6469 8.23299 20.0169 8.39477C20.3992 8.5441 20.985 8.68722 21.7742 8.8241C22.5634 8.94855 23.2109 9.09166 23.7165 9.25344C24.2221 9.41522 24.6537 9.68899 25.0113 10.0748C25.3813 10.4605 25.5663 11.0081 25.5663 11.7174C25.5663 12.6508 25.1655 13.3974 24.3639 13.9574C23.5623 14.5174 22.471 14.7974 21.0898 14.7974Z" fill="#D6BBFB"/><path d="M36.6259 4.69877L32.0014 15.4694C31.5698 16.5521 31.0457 17.3112 30.4291 17.7468C29.8125 18.1948 29.0664 18.4188 28.1908 18.4188C27.6976 18.4188 27.2104 18.3379 26.7295 18.1761C26.2485 18.0143 25.8539 17.7903 25.5456 17.5041L26.4705 15.7868C26.6925 15.9983 26.9515 16.1663 27.2474 16.2908C27.5557 16.4152 27.864 16.4774 28.1723 16.4774C28.5793 16.4774 28.9123 16.3717 29.1712 16.1601C29.4425 15.9486 29.6892 15.5939 29.9111 15.0961L30.0776 14.7041L25.7676 4.69877H28.1723L31.28 12.0721L34.4062 4.69877H36.6259Z" fill="#D6BBFB"/><path d="M43.5465 4.58677C44.5084 4.58677 45.3654 4.79833 46.1177 5.22144C46.8823 5.64455 47.4804 6.24188 47.912 7.01344C48.3436 7.78499 48.5594 8.67477 48.5594 9.68277C48.5594 10.6908 48.3436 11.5868 47.912 12.3708C47.4804 13.1423 46.8823 13.7397 46.1177 14.1628C45.3654 14.5859 44.5084 14.7974 43.5465 14.7974C42.2146 14.7974 41.1602 14.3494 40.3833 13.4534V18.2881H38.0711V4.69877H40.2723V6.00544C40.6546 5.53255 41.1232 5.17788 41.6782 4.94144C42.2455 4.70499 42.8682 4.58677 43.5465 4.58677ZM43.2875 12.8001C44.1384 12.8001 44.8352 12.5139 45.3778 11.9414C45.9327 11.369 46.2102 10.6161 46.2102 9.68277C46.2102 8.74944 45.9327 7.99655 45.3778 7.4241C44.8352 6.85166 44.1384 6.56544 43.2875 6.56544C42.7326 6.56544 42.2331 6.6961 41.7892 6.95744C41.3452 7.20633 40.9938 7.56722 40.7348 8.0401C40.4758 8.51299 40.3463 9.06055 40.3463 9.68277C40.3463 10.305 40.4758 10.8525 40.7348 11.3254C40.9938 11.7983 41.3452 12.1654 41.7892 12.4268C42.2331 12.6757 42.7326 12.8001 43.2875 12.8001Z" fill="#D6BBFB"/><path d="M56.3572 4.58677C57.6027 4.58677 58.6016 4.95388 59.3539 5.6881C60.1061 6.42233 60.4823 7.51122 60.4823 8.95477V14.6668H58.17V9.25344C58.17 8.38233 57.9665 7.72899 57.5596 7.29344C57.1526 6.84544 56.573 6.62144 55.8208 6.62144C54.9699 6.62144 54.2978 6.88277 53.8045 7.40544C53.3112 7.91566 53.0646 8.6561 53.0646 9.62677V14.6668H50.7523V0.816103H53.0646V5.8561C53.4468 5.44544 53.9155 5.13433 54.4704 4.92277C55.0377 4.69877 55.6666 4.58677 56.3572 4.58677Z" fill="#D6BBFB"/><path d="M72.9789 4.69877V14.6668H70.7777V13.3974C70.4077 13.8454 69.9453 14.1939 69.3903 14.4428C68.8354 14.6792 68.2373 14.7974 67.596 14.7974C66.2765 14.7974 65.2345 14.4303 64.4699 13.6961C63.7176 12.9494 63.3415 11.8481 63.3415 10.3921V4.69877H65.6537V10.0748C65.6537 10.9708 65.8511 11.6428 66.2457 12.0908C66.6526 12.5263 67.2261 12.7441 67.966 12.7441C68.7922 12.7441 69.4458 12.489 69.9268 11.9788C70.4201 11.4561 70.6667 10.7094 70.6667 9.73877V4.69877H72.9789Z" fill="#D6BBFB"/><path d="M79.0586 14.7974C78.257 14.7974 77.4739 14.6917 76.7093 14.4801C75.9447 14.2685 75.3343 14.001 74.878 13.6774L75.7659 11.9041C76.2099 12.2028 76.7402 12.4454 77.3568 12.6321C77.9857 12.8063 78.6023 12.8934 79.2066 12.8934C80.5877 12.8934 81.2783 12.5263 81.2783 11.7921C81.2783 11.4437 81.0995 11.201 80.7419 11.0641C80.3966 10.9272 79.8355 10.7965 79.0586 10.6721C78.2447 10.5477 77.5787 10.4045 77.0608 10.2428C76.5552 10.081 76.1112 9.80099 75.7289 9.40277C75.359 8.9921 75.174 8.42588 75.174 7.7041C75.174 6.75833 75.5625 6.00544 76.3394 5.44544C77.1286 4.87299 78.1892 4.58677 79.521 4.58677C80.1993 4.58677 80.8775 4.66766 81.5558 4.82944C82.2341 4.97877 82.789 5.1841 83.2206 5.44544L82.3327 7.21877C81.4941 6.72099 80.5507 6.4721 79.5025 6.4721C78.8243 6.4721 78.3063 6.57788 77.9487 6.78944C77.6034 6.98855 77.4307 7.2561 77.4307 7.5921C77.4307 7.96544 77.6157 8.23299 77.9857 8.39477C78.368 8.5441 78.9538 8.68722 79.743 8.8241C80.5322 8.94855 81.1797 9.09166 81.6853 9.25344C82.1909 9.41522 82.6225 9.68899 82.9801 10.0748C83.3501 10.4605 83.5351 11.0081 83.5351 11.7174C83.5351 12.6508 83.1343 13.3974 82.3327 13.9574C81.5311 14.5174 80.4398 14.7974 79.0586 14.7974Z" fill="#D6BBFB"/></svg>