<svg width="100%" height="100%" style="overflow:visible;" preserveAspectRatio="none" viewBox="0 0 82.84 13.61" fill="none" xmlns="http://www.w3.org/2000/svg"><path d="M11.1407 10.2694C10.7707 11.4765 10.1233 12.3787 9.19836 12.976C8.27346 13.5609 7.19442 13.8534 5.96122 13.8534C4.75268 13.8534 3.70446 13.5983 2.81656 13.088C1.94099 12.5778 1.26273 11.8498 0.781781 10.904C0.313165 9.95825 0.0788574 8.82581 0.0788574 7.5067C0.0788574 6.18758 0.319331 5.05514 0.800279 4.10936C1.28123 3.16358 1.95949 2.43558 2.83506 1.92536C3.71063 1.41514 4.74035 1.16003 5.92422 1.16003C7.16975 1.16003 8.23647 1.42758 9.12437 1.9627C10.0246 2.48536 10.6412 3.28181 10.9742 4.35203L8.66192 5.34136C8.45228 4.5947 8.13165 4.06581 7.70003 3.7547C7.26841 3.43114 6.71347 3.26936 6.03521 3.26936C5.02399 3.26936 4.21624 3.63647 3.61197 4.3707C3.02004 5.09247 2.72407 6.13781 2.72407 7.5067C2.72407 8.86314 3.00771 9.90847 3.57498 10.6427C4.14225 11.3769 4.96233 11.744 6.03521 11.744C6.70114 11.744 7.27457 11.5636 7.75552 11.2027C8.2488 10.8418 8.5941 10.2943 8.79141 9.56003L11.1407 10.2694Z" fill="#D6BBFB"/><path d="M14.3337 2.98936C13.2855 2.98936 12.7614 2.53514 12.7614 1.62669C12.7614 0.705806 13.2855 0.245361 14.3337 0.245361C15.3819 0.245361 15.9061 0.705806 15.9061 1.62669C15.9061 2.53514 15.3819 2.98936 14.3337 2.98936ZM15.5916 4.33336V13.6667H13.0574V4.33336H15.5916Z" fill="#D6BBFB"/><path d="M18.278 13.6667V4.33336H20.4792L20.6457 6.1627C20.88 5.52803 21.2315 5.03647 21.7001 4.68803C22.1811 4.32714 22.7853 4.14669 23.5129 4.14669C23.9445 4.14669 24.2775 4.21514 24.5118 4.35203L24.2158 6.4987C24.0925 6.46136 23.9384 6.43025 23.7534 6.40536C23.5807 6.36803 23.3526 6.34936 23.069 6.34936C22.6867 6.34936 22.3229 6.4427 21.9776 6.62936C21.6446 6.80358 21.3671 7.07736 21.1452 7.4507C20.9232 7.81158 20.8122 8.27203 20.8122 8.83203V13.6667H18.278Z" fill="#D6BBFB"/><path d="M30.1002 4.14669C31.3334 4.14669 32.2891 4.41425 32.9674 4.94936C33.658 5.48447 34.1143 6.13158 34.3363 6.8907L31.9685 7.74936C31.7219 6.61692 31.1114 6.05069 30.1372 6.05069C29.4343 6.05069 28.8855 6.29958 28.4909 6.79736C28.1086 7.29514 27.9175 8.03558 27.9175 9.0187C27.9175 10.0143 28.1148 10.7547 28.5094 11.24C28.9163 11.7129 29.4651 11.9494 30.1557 11.9494C31.2286 11.9494 31.8699 11.3956 32.0795 10.288L34.3733 11.0347C34.1636 11.8685 33.695 12.5467 32.9674 13.0694C32.2522 13.592 31.3211 13.8534 30.1742 13.8534C29.2123 13.8534 28.3676 13.6605 27.64 13.2747C26.9247 12.8889 26.3698 12.3351 25.9752 11.6134C25.5805 10.8916 25.3832 10.0205 25.3832 9.00003C25.3832 7.97958 25.5805 7.10847 25.9752 6.3867C26.3821 5.66492 26.9371 5.11114 27.64 4.72536C28.3552 4.33958 29.1753 4.14669 30.1002 4.14669Z" fill="#D6BBFB"/><path d="M40.56 4.14669C41.4849 4.14669 42.3049 4.33958 43.0202 4.72536C43.7355 5.11114 44.2904 5.66492 44.685 6.3867C45.092 7.10847 45.2954 7.97958 45.2954 9.00003C45.2954 10.0205 45.092 10.8916 44.685 11.6134C44.2904 12.3351 43.7355 12.8889 43.0202 13.2747C42.3049 13.6605 41.4849 13.8534 40.56 13.8534C39.6227 13.8534 38.7965 13.6605 38.0812 13.2747C37.3783 12.8889 36.8234 12.3351 36.4164 11.6134C36.0218 10.8916 35.8245 10.0205 35.8245 9.00003C35.8245 7.97958 36.0218 7.10847 36.4164 6.3867C36.8234 5.66492 37.3783 5.11114 38.0812 4.72536C38.7965 4.33958 39.6227 4.14669 40.56 4.14669ZM40.56 6.05069C39.8694 6.05069 39.3268 6.29958 38.9321 6.79736C38.5498 7.28269 38.3587 8.01692 38.3587 9.00003C38.3587 9.98314 38.5498 10.7236 38.9321 11.2214C39.3268 11.7067 39.8694 11.9494 40.56 11.9494C41.2382 11.9494 41.7685 11.7067 42.1508 11.2214C42.5454 10.7236 42.7427 9.98314 42.7427 9.00003C42.7427 8.01692 42.5454 7.28269 42.1508 6.79736C41.7685 6.29958 41.2382 6.05069 40.56 6.05069Z" fill="#D6BBFB"/><path d="M51.6335 4.14669C52.5584 4.14669 53.3784 4.33958 54.0937 4.72536C54.809 5.11114 55.3639 5.66492 55.7585 6.3867C56.1655 7.10847 56.3689 7.97958 56.3689 9.00003C56.3689 10.0205 56.1655 10.8916 55.7585 11.6134C55.3639 12.3351 54.809 12.8889 54.0937 13.2747C53.3784 13.6605 52.5584 13.8534 51.6335 13.8534C50.6962 13.8534 49.87 13.6605 49.1547 13.2747C48.4518 12.8889 47.8969 12.3351 47.4899 11.6134C47.0953 10.8916 46.898 10.0205 46.898 9.00003C46.898 7.97958 47.0953 7.10847 47.4899 6.3867C47.8969 5.66492 48.4518 5.11114 49.1547 4.72536C49.87 4.33958 50.6962 4.14669 51.6335 4.14669ZM51.6335 6.05069C50.9429 6.05069 50.4003 6.29958 50.0056 6.79736C49.6233 7.28269 49.4322 8.01692 49.4322 9.00003C49.4322 9.98314 49.6233 10.7236 50.0056 11.2214C50.4003 11.7067 50.9429 11.9494 51.6335 11.9494C52.3117 11.9494 52.842 11.7067 53.2243 11.2214C53.6189 10.7236 53.8162 9.98314 53.8162 9.00003C53.8162 8.01692 53.6189 7.28269 53.2243 6.79736C52.842 6.29958 52.3117 6.05069 51.6335 6.05069Z" fill="#D6BBFB"/><path d="M60.9867 0.245361V10.792C60.9867 11.2276 61.0606 11.5325 61.2086 11.7067C61.3566 11.8809 61.6033 11.968 61.9485 11.968C62.1582 11.968 62.3308 11.9556 62.4665 11.9307C62.6021 11.9058 62.7748 11.856 62.9844 11.7814L62.7625 13.4614C62.5528 13.5858 62.2877 13.6791 61.967 13.7414C61.6587 13.816 61.3504 13.8534 61.0421 13.8534C60.1419 13.8534 59.4822 13.6356 59.0629 13.2C58.6559 12.752 58.4524 12.0427 58.4524 11.072V0.245361H60.9867Z" fill="#D6BBFB"/><path d="M68.688 13.8534C67.2329 13.8534 66.0675 13.4303 65.1919 12.584C64.3163 11.7254 63.8786 10.5307 63.8786 9.00003C63.8786 7.97958 64.0759 7.10847 64.4705 6.3867C64.8651 5.66492 65.4139 5.11114 66.1168 4.72536C66.8321 4.33958 67.646 4.14669 68.5585 4.14669C69.4958 4.14669 70.2912 4.33958 70.9448 4.72536C71.5984 5.09869 72.0978 5.61514 72.4431 6.27469C72.7884 6.92181 72.9611 7.66225 72.9611 8.49603C72.9611 8.74492 72.9549 8.98136 72.9426 9.20536C72.9302 9.42936 72.9117 9.62847 72.8871 9.80269H66.3573C66.4559 10.5245 66.7026 11.0658 67.0972 11.4267C67.5042 11.7751 68.0283 11.9494 68.6695 11.9494C69.2121 11.9494 69.6499 11.8436 69.9829 11.632C70.3159 11.4205 70.5748 11.128 70.7598 10.7547L72.7761 11.5387C72.4801 12.2729 71.9622 12.8454 71.2223 13.256C70.4823 13.6543 69.6376 13.8534 68.688 13.8534ZM68.54 6.03203C67.3438 6.03203 66.6224 6.69781 66.3758 8.02936H70.5378C70.4638 7.38225 70.2542 6.8907 69.9089 6.5547C69.5759 6.20625 69.1196 6.03203 68.54 6.03203Z" fill="#D6BBFB"/><path d="M78.8083 13.8534C77.8711 13.8534 77.014 13.6854 76.2371 13.3494C75.4725 13.0134 74.8497 12.5405 74.3688 11.9307L75.8301 10.4374C76.1261 10.8854 76.5207 11.2525 77.014 11.5387C77.5073 11.8249 78.093 11.968 78.7713 11.968C79.2523 11.968 79.6345 11.8996 79.9182 11.7627C80.2141 11.6134 80.3621 11.3831 80.3621 11.072C80.3621 10.8729 80.2943 10.7049 80.1587 10.568C80.023 10.4187 79.7517 10.3005 79.3447 10.2134L77.7169 9.87736C76.644 9.65336 75.8795 9.31736 75.4232 8.86936C74.9792 8.40892 74.7572 7.81781 74.7572 7.09603C74.7572 6.58581 74.9052 6.10669 75.2012 5.65869C75.5095 5.21069 75.9658 4.84981 76.57 4.57603C77.1743 4.28981 77.9266 4.14669 78.8268 4.14669C80.7013 4.14669 82.0455 4.72536 82.8594 5.8827L81.3425 7.37603C81.0712 6.94047 80.7136 6.6107 80.2696 6.3867C79.838 6.15025 79.3817 6.03203 78.9008 6.03203C77.8156 6.03203 77.273 6.33692 77.273 6.9467C77.273 7.14581 77.3593 7.32003 77.5319 7.46936C77.7046 7.60625 78.0191 7.72447 78.4753 7.82403L80.3621 8.21603C81.2747 8.4027 81.9283 8.72003 82.3229 9.16803C82.7175 9.60358 82.9149 10.1325 82.9149 10.7547C82.9149 11.6507 82.5572 12.3911 81.842 12.976C81.1391 13.5609 80.1278 13.8534 78.8083 13.8534Z" fill="#D6BBFB"/></svg>