<svg width="69" height="19" viewBox="0 0 69 19" fill="none" xmlns="http://www.w3.org/2000/svg">
<path d="M12.8382 5.67137C12.4243 2.65527 10.1252 0.905273 7.14294 0.905273C3.62858 0.905273 0.981323 3.4905 0.981323 7.87876C0.981323 12.2604 3.59574 14.8522 7.14294 14.8522C10.342 14.8522 12.4637 12.7642 12.8382 10.1723L10.3814 10.1591C10.0727 11.75 8.78516 12.6449 7.17578 12.6449C4.99491 12.6449 3.43152 10.9943 3.43152 7.87876C3.43152 4.81626 4.98178 3.11266 7.18235 3.11266C8.81801 3.11266 10.0989 4.04732 10.3814 5.67137H12.8382Z" fill="#D6BBFB"/>
<path d="M17.8683 14.8721C19.4514 14.8721 20.3973 14.1231 20.8309 13.268H20.9097V14.6666H23.1957V7.85224C23.1957 5.16095 21.0214 4.35224 19.0967 4.35224C16.9749 4.35224 15.3458 5.30679 14.8203 7.16285L17.0406 7.48103C17.2771 6.78501 17.9471 6.18842 19.1098 6.18842C20.2134 6.18842 20.8177 6.75849 20.8177 7.75944V7.79921C20.8177 8.48861 20.1017 8.52175 18.3215 8.71399C16.364 8.92611 14.4919 9.51607 14.4919 11.8096C14.4919 13.8115 15.9436 14.8721 17.8683 14.8721ZM18.4858 13.1089C17.4939 13.1089 16.7844 12.6515 16.7844 11.7699C16.7844 10.8485 17.5793 10.464 18.6434 10.3115C19.2675 10.2253 20.5155 10.0663 20.8243 9.81436V11.0142C20.8243 12.1477 19.9178 13.1089 18.4858 13.1089Z" fill="#D6BBFB"/>
<path d="M30.6251 4.48482H28.6347V2.04543H26.2568V4.48482H24.8247V6.34088H26.2568V12.0019C26.2436 13.9176 27.6231 14.8589 29.4098 14.8058C30.0864 14.786 30.5528 14.6534 30.809 14.5672L30.4083 12.6913C30.2769 12.7244 30.0076 12.7841 29.712 12.7841C29.1142 12.7841 28.6347 12.5719 28.6347 11.6041V6.34088H30.6251V4.48482Z" fill="#D6BBFB"/>
<path d="M35.5172 14.8721C37.1003 14.8721 38.0463 14.1231 38.4798 13.268H38.5586V14.6666H40.8446V7.85224C40.8446 5.16095 38.6703 4.35224 36.7456 4.35224C34.6239 4.35224 32.9948 5.30679 32.4693 7.16285L34.6896 7.48103C34.926 6.78501 35.5961 6.18842 36.7588 6.18842C37.8623 6.18842 38.4667 6.75849 38.4667 7.75944V7.79921C38.4667 8.48861 37.7507 8.52175 35.9705 8.71399C34.013 8.92611 32.1408 9.51607 32.1408 11.8096C32.1408 13.8115 33.5926 14.8721 35.5172 14.8721ZM36.1347 13.1089C35.1428 13.1089 34.4334 12.6515 34.4334 11.7699C34.4334 10.8485 35.2282 10.464 36.2924 10.3115C36.9164 10.2253 38.1645 10.0663 38.4732 9.81436V11.0142C38.4732 12.1477 37.5667 13.1089 36.1347 13.1089Z" fill="#D6BBFB"/>
<path d="M45.6136 1.09088H43.2357V14.6666H45.6136V1.09088Z" fill="#D6BBFB"/>
<path d="M52.46 14.8655C55.416 14.8655 57.2947 12.7642 57.2947 9.6155C57.2947 6.4602 55.416 4.35224 52.46 4.35224C49.504 4.35224 47.6253 6.4602 47.6253 9.6155C47.6253 12.7642 49.504 14.8655 52.46 14.8655ZM52.4732 12.9432C50.8375 12.9432 50.0361 11.4716 50.0361 9.60887C50.0361 7.74618 50.8375 6.25471 52.4732 6.25471C54.0826 6.25471 54.884 7.74618 54.884 9.60887C54.884 11.4716 54.0826 12.9432 52.4732 12.9432Z" fill="#D6BBFB"/>
<path d="M63.701 18.6969C66.4271 18.6969 68.4372 17.4375 68.4372 14.8324V4.48482H66.0921V6.16853H65.9607C65.5995 5.43274 64.844 4.35224 63.0639 4.35224C60.7319 4.35224 58.8992 6.19505 58.8992 9.54259C58.8992 12.8636 60.7319 14.5208 63.0573 14.5208C64.7849 14.5208 65.5929 13.5861 65.9607 12.8371H66.079V14.7661C66.079 16.2642 65.0937 16.8807 63.7405 16.8807C62.3084 16.8807 61.6778 16.1979 61.3888 15.6013L59.2473 16.125C59.6809 17.5502 61.1326 18.6969 63.701 18.6969ZM63.7208 12.6382C62.1508 12.6382 61.3231 11.4053 61.3231 9.52933C61.3231 7.6799 62.1377 6.32099 63.7208 6.32099C65.2513 6.32099 66.0921 7.60035 66.0921 9.52933C66.0921 11.4716 65.2382 12.6382 63.7208 12.6382Z" fill="#D6BBFB"/>
</svg>
