<svg width="59" height="19" viewBox="0 0 59 19" fill="none" xmlns="http://www.w3.org/2000/svg">
<path d="M2.49207 11.9494H6.8391V13.6667H0.383301V0.693359H2.49207V11.9494Z" fill="#D6BBFB"/>
<path d="M7.8997 8.47736C7.8997 7.44447 8.10934 6.5298 8.52863 5.73336C8.96025 4.93691 9.53985 4.32092 10.2674 3.88536C11.0074 3.43736 11.8213 3.21336 12.7092 3.21336C13.5108 3.21336 14.2075 3.37514 14.7994 3.69869C15.4037 4.0098 15.8847 4.4018 16.2423 4.87469V3.38136H18.3696V13.6667H16.2423V12.136C15.8847 12.6214 15.3976 13.0258 14.781 13.3494C14.1644 13.6729 13.4614 13.8347 12.6722 13.8347C11.7966 13.8347 10.995 13.6107 10.2674 13.1627C9.53985 12.7022 8.96025 12.0676 8.52863 11.2587C8.10934 10.4374 7.8997 9.51025 7.8997 8.47736ZM16.2423 8.51469C16.2423 7.80536 16.0943 7.18936 15.7983 6.66669C15.5147 6.14403 15.1386 5.7458 14.67 5.47203C14.2013 5.19825 13.6957 5.06136 13.1531 5.06136C12.6105 5.06136 12.1049 5.19825 11.6363 5.47203C11.1677 5.73336 10.7854 6.12536 10.4894 6.64803C10.2058 7.15825 10.064 7.76803 10.064 8.47736C10.064 9.18669 10.2058 9.80892 10.4894 10.344C10.7854 10.8791 11.1677 11.2898 11.6363 11.576C12.1172 11.8498 12.6229 11.9867 13.1531 11.9867C13.6957 11.9867 14.2013 11.8498 14.67 11.576C15.1386 11.3022 15.5147 10.904 15.7983 10.3814C16.0943 9.84625 16.2423 9.22403 16.2423 8.51469Z" fill="#D6BBFB"/>
<path d="M30.3144 3.38136L24.062 18.5014H21.8793L23.951 13.4987L19.937 3.38136H22.2862L25.1534 11.2214L28.1316 3.38136H30.3144Z" fill="#D6BBFB"/>
<path d="M41.2472 8.27203C41.2472 8.6578 41.2226 9.00625 41.1732 9.31736H33.3856C33.4473 10.1387 33.7494 10.7982 34.292 11.296C34.8346 11.7938 35.5005 12.0427 36.2898 12.0427C37.4243 12.0427 38.2259 11.5636 38.6945 10.6054H40.9698C40.6615 11.5511 40.1004 12.3289 39.2865 12.9387C38.4849 13.536 37.486 13.8347 36.2898 13.8347C35.3156 13.8347 34.44 13.6169 33.6631 13.1814C32.8985 12.7334 32.2942 12.1111 31.8503 11.3147C31.4186 10.5058 31.2028 9.57247 31.2028 8.51469C31.2028 7.45691 31.4125 6.5298 31.8318 5.73336C32.2634 4.92447 32.8615 4.30225 33.6261 3.86669C34.403 3.43114 35.2909 3.21336 36.2898 3.21336C37.2517 3.21336 38.1087 3.42492 38.861 3.84803C39.6133 4.27114 40.199 4.86847 40.6183 5.64003C41.0376 6.39914 41.2472 7.27647 41.2472 8.27203ZM39.046 7.60003C39.0336 6.81603 38.7562 6.18758 38.2136 5.71469C37.671 5.2418 36.9989 5.00536 36.1973 5.00536C35.4697 5.00536 34.8469 5.2418 34.329 5.71469C33.8111 6.17514 33.5028 6.80358 33.4041 7.60003H39.046Z" fill="#D6BBFB"/>
<path d="M45.4313 4.87469C45.7396 4.35203 46.1465 3.94758 46.6521 3.66136C47.1701 3.36269 47.7805 3.21336 48.4834 3.21336V5.41603H47.947C47.1207 5.41603 46.4918 5.62758 46.0602 6.05069C45.6409 6.4738 45.4313 7.20803 45.4313 8.25336V13.6667H43.3225V3.38136H45.4313V4.87469Z" fill="#D6BBFB"/>
<path d="M54.1214 13.8347C53.3198 13.8347 52.5984 13.6916 51.9571 13.4054C51.3282 13.1067 50.8288 12.7085 50.4588 12.2107C50.0888 11.7005 49.8915 11.1342 49.8669 10.512H52.0496C52.0866 10.9476 52.2901 11.3147 52.6601 11.6134C53.0424 11.8996 53.5171 12.0427 54.0844 12.0427C54.6763 12.0427 55.1326 11.9307 55.4533 11.7067C55.7862 11.4702 55.9527 11.1716 55.9527 10.8107C55.9527 10.4249 55.7677 10.1387 55.3978 9.95203C55.0401 9.76536 54.4667 9.56003 53.6775 9.33603C52.9129 9.12447 52.2901 8.91914 51.8092 8.72003C51.3282 8.52092 50.9089 8.21603 50.5513 7.80536C50.206 7.39469 50.0334 6.85336 50.0334 6.18136C50.0334 5.6338 50.1937 5.13603 50.5143 4.68803C50.8349 4.22758 51.2912 3.86669 51.8832 3.60536C52.4874 3.34403 53.178 3.21336 53.9549 3.21336C55.1141 3.21336 56.0452 3.51203 56.7481 4.10936C57.4634 4.69425 57.8457 5.49691 57.895 6.51736H55.7862C55.7492 6.05691 55.5643 5.6898 55.2313 5.41603C54.8983 5.14225 54.4482 5.00536 53.8809 5.00536C53.326 5.00536 52.9005 5.11114 52.6046 5.32269C52.3086 5.53425 52.1606 5.81425 52.1606 6.16269C52.1606 6.43647 52.2593 6.66669 52.4566 6.85336C52.6539 7.04003 52.8944 7.18936 53.178 7.30136C53.4616 7.40092 53.8809 7.53158 54.4359 7.69336C55.1758 7.89247 55.7801 8.0978 56.2487 8.30936C56.7296 8.50847 57.1427 8.80714 57.488 9.20536C57.8333 9.60358 58.0122 10.1325 58.0245 10.792C58.0245 11.3769 57.8642 11.8996 57.5435 12.36C57.2229 12.8205 56.7666 13.1814 56.1747 13.4427C55.5951 13.704 54.9107 13.8347 54.1214 13.8347Z" fill="#D6BBFB"/>
</svg>
