<svg width="30" height="30" viewBox="0 0 30 30" fill="none" xmlns="http://www.w3.org/2000/svg">
<path d="M10.4839 21.2855C16.2175 21.2855 20.8654 16.5952 20.8654 10.8093C20.8654 10.1536 20.8057 9.51197 20.6915 8.88961C20.0748 8.77436 19.4389 8.71411 18.7891 8.71411C13.0556 8.71411 8.40759 13.4045 8.40759 19.1903C8.40759 19.846 8.46729 20.4877 8.58151 21.11C9.19824 21.2253 9.8341 21.2855 10.4839 21.2855Z" fill="#B692F6"/>
<path fill-rule="evenodd" clip-rule="evenodd" d="M8.58155 21.1101C3.75655 20.2084 0.102417 15.9396 0.102417 10.8094C0.102417 5.0236 4.75038 0.333252 10.4839 0.333252C15.5677 0.333252 19.798 4.0207 20.6916 8.88971C20.0748 8.77445 19.439 8.7142 18.7892 8.7142C13.0556 8.7142 8.40764 13.4046 8.40764 19.1904C8.40764 19.8461 8.46734 20.4878 8.58155 21.1101Z" fill="#D6BBFB"/>
<path fill-rule="evenodd" clip-rule="evenodd" d="M10.4839 21.2856C16.2175 21.2856 20.8655 16.5952 20.8655 10.8094C20.8655 10.1537 20.8058 9.512 20.6915 8.88965C25.5166 9.79136 29.1707 14.0602 29.1707 19.1903C29.1707 24.9762 24.5227 29.6665 18.7892 29.6665C13.7054 29.6665 9.47511 25.9791 8.58154 21.1101C9.19827 21.2253 9.83413 21.2856 10.4839 21.2856Z" fill="#E9D7FE"/>
</svg>
