<svg width="94" height="20" viewBox="0 0 94 20" fill="none" xmlns="http://www.w3.org/2000/svg">
<path d="M10.9224 1.63727V14.6666H8.33265V9.1226H2.80175V14.6666H0.212036V1.63727H2.80175V6.99461H8.33265V1.63727H10.9224Z" fill="#D6BBFB"/>
<path d="M18.0218 14.8346C17.0353 14.8346 16.1474 14.6168 15.3581 14.1813C14.5689 13.7333 13.9461 13.1048 13.4898 12.2959C13.0459 11.4871 12.8239 10.5537 12.8239 9.49594C12.8239 8.43816 13.052 7.50483 13.5083 6.69594C13.9769 5.88705 14.612 5.26483 15.4136 4.82927C16.2152 4.38127 17.1093 4.15727 18.0958 4.15727C19.0824 4.15727 19.9765 4.38127 20.778 4.82927C21.5796 5.26483 22.2085 5.88705 22.6648 6.69594C23.1334 7.50483 23.3678 8.43816 23.3678 9.49594C23.3678 10.5537 23.1273 11.4871 22.6463 12.2959C22.1777 13.1048 21.5365 13.7333 20.7225 14.1813C19.921 14.6168 19.0207 14.8346 18.0218 14.8346ZM18.0218 12.5573C18.4905 12.5573 18.9282 12.4453 19.3352 12.2213C19.7545 11.9848 20.0874 11.6364 20.3341 11.1759C20.5807 10.7155 20.704 10.1555 20.704 9.49594C20.704 8.51283 20.4451 7.75994 19.9271 7.23727C19.4215 6.70216 18.7987 6.4346 18.0588 6.4346C17.3189 6.4346 16.6961 6.70216 16.1905 7.23727C15.6973 7.75994 15.4506 8.51283 15.4506 9.49594C15.4506 10.479 15.6911 11.2382 16.172 11.7733C16.6653 12.2959 17.2819 12.5573 18.0218 12.5573Z" fill="#D6BBFB"/>
<path d="M34.9419 4.32527V14.6666H32.3336V13.3599C32.0007 13.8079 31.5629 14.1626 31.0203 14.4239C30.49 14.6728 29.9104 14.7973 29.2815 14.7973C28.4799 14.7973 27.7708 14.6293 27.1542 14.2933C26.5376 13.9448 26.0505 13.4408 25.6929 12.7813C25.3476 12.1093 25.1749 11.3128 25.1749 10.3919V4.32527H27.7646V10.0186C27.7646 10.8399 27.9681 11.4746 28.3751 11.9226C28.782 12.3582 29.337 12.5759 30.0399 12.5759C30.7551 12.5759 31.3162 12.3582 31.7232 11.9226C32.1302 11.4746 32.3336 10.8399 32.3336 10.0186V4.32527H34.9419Z" fill="#D6BBFB"/>
<path d="M40.0868 5.9306C40.4197 5.38305 40.8513 4.95372 41.3816 4.6426C41.9242 4.33149 42.5408 4.17594 43.2314 4.17594V6.91994H42.547C41.7331 6.91994 41.1165 7.11283 40.6972 7.49861C40.2902 7.88438 40.0868 8.55638 40.0868 9.5146V14.6666H37.497V4.32527H40.0868V5.9306Z" fill="#D6BBFB"/>
<path d="M48.9898 4.15727C49.7544 4.15727 50.4264 4.31283 51.006 4.62394C51.5857 4.92261 52.0419 5.3146 52.3749 5.79994V4.32527H54.9831V14.7413C54.9831 15.6995 54.792 16.5519 54.4097 17.2986C54.0274 18.0577 53.4539 18.655 52.6894 19.0906C51.9248 19.5386 50.9999 19.7626 49.9147 19.7626C48.4595 19.7626 47.2633 19.4204 46.3261 18.7359C45.4012 18.0515 44.8771 17.1182 44.7537 15.9359H47.325C47.4606 16.4088 47.7504 16.7822 48.1944 17.0559C48.6506 17.3422 49.1994 17.4853 49.8407 17.4853C50.5929 17.4853 51.2034 17.255 51.672 16.7946C52.1406 16.3466 52.3749 15.6622 52.3749 14.7413V13.1359C52.0419 13.6213 51.5795 14.0257 50.9875 14.3493C50.4079 14.6728 49.742 14.8346 48.9898 14.8346C48.1265 14.8346 47.3373 14.6106 46.622 14.1626C45.9068 13.7146 45.3395 13.0862 44.9202 12.2773C44.5133 11.4559 44.3098 10.5164 44.3098 9.4586C44.3098 8.41327 44.5133 7.48616 44.9202 6.67727C45.3395 5.86838 45.9006 5.24616 46.6035 4.8106C47.3188 4.37505 48.1142 4.15727 48.9898 4.15727ZM52.3749 9.49594C52.3749 8.86127 52.2516 8.31994 52.0049 7.87194C51.7583 7.41149 51.4253 7.06305 51.006 6.8266C50.5868 6.57772 50.1366 6.45327 49.6557 6.45327C49.1747 6.45327 48.7308 6.57149 48.3238 6.80794C47.9169 7.04438 47.5839 7.39283 47.325 7.85327C47.0783 8.30127 46.955 8.83638 46.955 9.4586C46.955 10.0808 47.0783 10.6284 47.325 11.1013C47.5839 11.5617 47.9169 11.9164 48.3238 12.1653C48.7431 12.4142 49.1871 12.5386 49.6557 12.5386C50.1366 12.5386 50.5868 12.4204 51.006 12.1839C51.4253 11.935 51.7583 11.5866 52.0049 11.1386C52.2516 10.6782 52.3749 10.1306 52.3749 9.49594Z" fill="#D6BBFB"/>
<path d="M60.1021 0.853271V14.6666H57.5124V0.853271H60.1021Z" fill="#D6BBFB"/>
<path d="M61.9949 9.4586C61.9949 8.41327 62.1983 7.48616 62.6053 6.67727C63.0246 5.86838 63.5857 5.24616 64.2886 4.8106C65.0039 4.37505 65.7993 4.15727 66.6749 4.15727C67.4394 4.15727 68.1054 4.31283 68.6726 4.62394C69.2522 4.93505 69.7147 5.32705 70.06 5.79994V4.32527H72.6682V14.6666H70.06V13.1546C69.727 13.6399 69.2646 14.0444 68.6726 14.3679C68.093 14.679 67.4209 14.8346 66.6564 14.8346C65.7931 14.8346 65.0039 14.6106 64.2886 14.1626C63.5857 13.7146 63.0246 13.0862 62.6053 12.2773C62.1983 11.4559 61.9949 10.5164 61.9949 9.4586ZM70.06 9.49594C70.06 8.86127 69.9367 8.31994 69.69 7.87194C69.4434 7.41149 69.1104 7.06305 68.6911 6.8266C68.2718 6.57772 67.8217 6.45327 67.3408 6.45327C66.8598 6.45327 66.4159 6.57149 66.0089 6.80794C65.602 7.04438 65.269 7.39283 65.01 7.85327C64.7634 8.30127 64.6401 8.83638 64.6401 9.4586C64.6401 10.0808 64.7634 10.6284 65.01 11.1013C65.269 11.5617 65.602 11.9164 66.0089 12.1653C66.4282 12.4142 66.8722 12.5386 67.3408 12.5386C67.8217 12.5386 68.2718 12.4204 68.6911 12.1839C69.1104 11.935 69.4434 11.5866 69.69 11.1386C69.9367 10.6782 70.06 10.1306 70.06 9.49594Z" fill="#D6BBFB"/>
<path d="M79.1191 14.8346C78.2805 14.8346 77.5283 14.6853 76.8623 14.3866C76.1964 14.0755 75.6661 13.6586 75.2715 13.1359C74.8892 12.6133 74.6796 12.0346 74.6426 11.3999H77.2508C77.3001 11.7982 77.4913 12.1279 77.8242 12.3893C78.1695 12.6506 78.595 12.7813 79.1006 12.7813C79.5939 12.7813 79.9762 12.6817 80.2475 12.4826C80.5311 12.2835 80.6729 12.0284 80.6729 11.7173C80.6729 11.3813 80.5003 11.1324 80.155 10.9706C79.822 10.7964 79.2856 10.6097 78.5456 10.4106C77.7811 10.2239 77.1521 10.031 76.6588 9.83194C76.1779 9.63283 75.7586 9.32794 75.401 8.91727C75.0557 8.50661 74.883 7.95283 74.883 7.25594C74.883 6.68349 75.0434 6.16083 75.364 5.68794C75.697 5.21505 76.1656 4.84172 76.7698 4.56794C77.3864 4.29416 78.1079 4.15727 78.9341 4.15727C80.155 4.15727 81.1292 4.46838 81.8568 5.0906C82.5844 5.70038 82.9852 6.52794 83.0592 7.57327H80.5804C80.5434 7.1626 80.3708 6.83905 80.0625 6.6026C79.7665 6.35372 79.3657 6.22927 78.8601 6.22927C78.3915 6.22927 78.0277 6.31638 77.7687 6.4906C77.5221 6.66483 77.3988 6.90749 77.3988 7.2186C77.3988 7.56705 77.5714 7.8346 77.9167 8.02127C78.262 8.19549 78.7984 8.37594 79.526 8.5626C80.266 8.74927 80.8764 8.94216 81.3573 9.14127C81.8383 9.34038 82.2514 9.65149 82.5967 10.0746C82.9543 10.4853 83.1393 11.0328 83.1516 11.7173C83.1516 12.3146 82.9852 12.8497 82.6522 13.3226C82.3316 13.7955 81.8629 14.1688 81.2463 14.4426C80.6421 14.7039 79.933 14.8346 79.1191 14.8346Z" fill="#D6BBFB"/>
<path d="M89.199 14.8346C88.3605 14.8346 87.6082 14.6853 86.9423 14.3866C86.2763 14.0755 85.7461 13.6586 85.3515 13.1359C84.9692 12.6133 84.7595 12.0346 84.7225 11.3999H87.3307C87.3801 11.7982 87.5712 12.1279 87.9042 12.3893C88.2495 12.6506 88.6749 12.7813 89.1805 12.7813C89.6738 12.7813 90.0561 12.6817 90.3274 12.4826C90.611 12.2835 90.7529 12.0284 90.7529 11.7173C90.7529 11.3813 90.5802 11.1324 90.2349 10.9706C89.902 10.7964 89.3655 10.6097 88.6256 10.4106C87.861 10.2239 87.2321 10.031 86.7388 9.83194C86.2579 9.63283 85.8386 9.32794 85.4809 8.91727C85.1356 8.50661 84.963 7.95283 84.963 7.25594C84.963 6.68349 85.1233 6.16083 85.4439 5.68794C85.7769 5.21505 86.2455 4.84172 86.8498 4.56794C87.4664 4.29416 88.1878 4.15727 89.014 4.15727C90.2349 4.15727 91.2091 4.46838 91.9367 5.0906C92.6643 5.70038 93.0651 6.52794 93.1391 7.57327H90.6604C90.6234 7.1626 90.4507 6.83905 90.1424 6.6026C89.8465 6.35372 89.4457 6.22927 88.9401 6.22927C88.4714 6.22927 88.1077 6.31638 87.8487 6.4906C87.602 6.66483 87.4787 6.90749 87.4787 7.2186C87.4787 7.56705 87.6514 7.8346 87.9967 8.02127C88.342 8.19549 88.8784 8.37594 89.606 8.5626C90.3459 8.74927 90.9563 8.94216 91.4373 9.14127C91.9182 9.34038 92.3314 9.65149 92.6767 10.0746C93.0343 10.4853 93.2193 11.0328 93.2316 11.7173C93.2316 12.3146 93.0651 12.8497 92.7321 13.3226C92.4115 13.7955 91.9429 14.1688 91.3263 14.4426C90.722 14.7039 90.0129 14.8346 89.199 14.8346Z" fill="#D6BBFB"/>
</svg>
