<svg width="30" height="30" viewBox="0 0 30 30" fill="none" xmlns="http://www.w3.org/2000/svg">
<path fill-rule="evenodd" clip-rule="evenodd" d="M15.2369 23.311C19.7855 23.311 23.4729 19.59 23.4729 14.9999C23.4729 10.4098 19.7855 6.68881 15.2369 6.68881C10.6883 6.68881 7.00088 10.4098 7.00088 14.9999C7.00088 19.59 10.6883 23.311 15.2369 23.311ZM15.2369 29.6666C23.2639 29.6666 29.771 23.1001 29.771 14.9999C29.771 6.89974 23.2639 0.333252 15.2369 0.333252C7.20991 0.333252 0.702759 6.89974 0.702759 14.9999C0.702759 23.1001 7.20991 29.6666 15.2369 29.6666Z" fill="#D6BBFB"/>
<path d="M15.4031 15.321C16.9167 13.7936 19.3707 13.7936 20.8843 15.321L28.4209 22.9263C29.9344 24.4537 29.9344 26.9301 28.4209 28.4575C26.9073 29.9848 24.4533 29.9848 22.9397 28.4575L15.4031 20.8521C13.8895 19.3248 13.8895 16.8484 15.4031 15.321Z" fill="#E9D7FE"/>
<path d="M17.5194 22.9876L22.306 27.8178C24.6018 26.5257 26.5146 24.6237 27.829 22.329L23.0817 17.5383C22.2478 20.1646 20.1548 22.2222 17.5194 22.9876Z" fill="#B692F6"/>
</svg>
