<svg width="30" height="30" viewBox="0 0 30 30" fill="none" xmlns="http://www.w3.org/2000/svg">
<path d="M14.5341 0.333252C6.50712 0.333252 0 6.89974 0 14.9999C0 23.1001 6.50712 29.6666 14.5341 29.6666C21.7358 29.6666 27.7141 24.381 28.8673 17.4444H28.763C27.6874 21.6616 23.8937 24.7777 19.3788 24.7777C14.0275 24.7777 9.68942 20.4 9.68942 14.9999C9.68942 9.59979 14.0275 5.22214 19.3788 5.22214C23.8937 5.22214 27.6874 8.33825 28.763 12.5555H28.8673C27.7141 5.61884 21.7358 0.333252 14.5341 0.333252Z" fill="#E9D7FE"/>
<path d="M0 14.9999C0 6.89974 6.50715 0.333252 14.5341 0.333252C21.7358 0.333252 27.7141 5.61884 28.8673 12.5555H19.0736C17.998 8.33825 14.2043 5.22214 9.68942 5.22214C4.3381 5.22214 0 9.5998 0 14.9999Z" fill="#D6BBFB"/>
<path d="M0 14.9998C0 23.1 6.50715 29.6665 14.5341 29.6665C21.7358 29.6665 27.7141 24.3809 28.8673 17.4443H19.0736C17.998 21.6615 14.2043 24.7776 9.68942 24.7776C4.3381 24.7776 0 20.4 0 14.9998Z" fill="#D6BBFB"/>
</svg>
