<svg width="100%" height="100%" style="overflow:visible;" preserveAspectRatio="none" viewBox="0 0 100 32" fill="none" xmlns="http://www.w3.org/2000/svg"><path d="M9.00369 8.45453H11.6386V17.9574C11.6386 18.999 11.3924 19.9152 10.9 20.7059C10.4123 21.4967 9.72575 22.1146 8.84034 22.5596C7.95492 23 6.92036 23.2202 5.73664 23.2202C4.5482 23.2202 3.51127 23 2.62585 22.5596C1.74043 22.1146 1.05388 21.4967 0.56619 20.7059C0.0785005 19.9152 -0.165344 18.999 -0.165344 17.9574V8.45453H2.4696V17.7372C2.4696 18.3433 2.60217 18.883 2.86733 19.3565C3.13721 19.83 3.516 20.2017 4.00369 20.4716C4.49138 20.7367 5.06903 20.8693 5.73664 20.8693C6.40426 20.8693 6.98191 20.7367 7.4696 20.4716C7.96202 20.2017 8.34081 19.83 8.60596 19.3565C8.87111 18.883 9.00369 18.3433 9.00369 17.7372V8.45453Z" fill="#101828"/><path d="M16.96 16.6079V23H14.389V12.0909H16.8464V13.9446H16.9742C17.2252 13.3338 17.6253 12.8485 18.1745 12.4886C18.7285 12.1288 19.4127 11.9488 20.2271 11.9488C20.9799 11.9488 21.6357 12.1098 22.1944 12.4318C22.7578 12.7538 23.1934 13.2202 23.5012 13.8309C23.8137 14.4417 23.9676 15.1827 23.9629 16.054V23H21.3918V16.4517C21.3918 15.7225 21.2024 15.152 20.8236 14.74C20.4496 14.3281 19.9311 14.1221 19.2682 14.1221C18.8184 14.1221 18.4183 14.2216 18.068 14.4204C17.7223 14.6146 17.4501 14.8963 17.2512 15.2656C17.0571 15.6349 16.96 16.0824 16.96 16.6079Z" fill="#101828"/><path d="M32.0239 12.0909V14.0795H25.7526V12.0909H32.0239ZM27.3009 9.47726H29.8719V19.7187C29.8719 20.0644 29.924 20.3295 30.0282 20.5142C30.1371 20.6941 30.2791 20.8172 30.4543 20.8835C30.6295 20.9498 30.8236 20.9829 31.0367 20.9829C31.1977 20.9829 31.3445 20.9711 31.4771 20.9474C31.6144 20.9238 31.7185 20.9024 31.7896 20.8835L32.2228 22.8934C32.0855 22.9408 31.889 22.9929 31.6333 23.0497C31.3824 23.1065 31.0746 23.1397 30.71 23.1491C30.0661 23.1681 29.4861 23.071 28.97 22.8579C28.4539 22.6401 28.0443 22.304 27.7413 21.8494C27.443 21.3949 27.2962 20.8267 27.3009 20.1449V9.47726Z" fill="#101828"/><path d="M34.1741 23V12.0909H36.7452V23H34.1741ZM35.4668 10.5426C35.0596 10.5426 34.7092 10.4077 34.4156 10.1378C34.1221 9.86315 33.9753 9.53407 33.9753 9.15055C33.9753 8.76229 34.1221 8.43322 34.4156 8.16333C34.7092 7.88871 35.0596 7.7514 35.4668 7.7514C35.8787 7.7514 36.2291 7.88871 36.5179 8.16333C36.8115 8.43322 36.9582 8.76229 36.9582 9.15055C36.9582 9.53407 36.8115 9.86315 36.5179 10.1378C36.2291 10.4077 35.8787 10.5426 35.4668 10.5426Z" fill="#101828"/><path d="M44.8364 12.0909V14.0795H38.5651V12.0909H44.8364ZM40.1134 9.47726H42.6844V19.7187C42.6844 20.0644 42.7365 20.3295 42.8407 20.5142C42.9496 20.6941 43.0916 20.8172 43.2668 20.8835C43.442 20.9498 43.6361 20.9829 43.8492 20.9829C44.0102 20.9829 44.157 20.9711 44.2896 20.9474C44.4269 20.9238 44.531 20.9024 44.6021 20.8835L45.0353 22.8934C44.898 22.9408 44.7015 22.9929 44.4458 23.0497C44.1949 23.1065 43.8871 23.1397 43.5225 23.1491C42.8786 23.1681 42.2986 23.071 41.7825 22.8579C41.2664 22.6401 40.8568 22.304 40.5538 21.8494C40.2555 21.3949 40.1087 20.8267 40.1134 20.1449V9.47726Z" fill="#101828"/><path d="M49.792 8.45453V23H47.221V8.45453H49.792Z" fill="#101828"/><path d="M57.2654 23.2131C56.1717 23.2131 55.2271 22.9858 54.4316 22.5312C53.6409 22.072 53.0325 21.4233 52.6063 20.5852C52.1802 19.7424 51.9671 18.7505 51.9671 17.6094C51.9671 16.4872 52.1802 15.5024 52.6063 14.6548C53.0372 13.8025 53.6385 13.1397 54.4103 12.6662C55.1821 12.188 56.0888 11.9488 57.1305 11.9488C57.8028 11.9488 58.4373 12.0577 59.0339 12.2756C59.6352 12.4886 60.1655 12.8201 60.6248 13.2699C61.0888 13.7197 61.4534 14.2926 61.7185 14.9886C61.9837 15.6799 62.1163 16.5038 62.1163 17.4602V18.2486H53.1745V16.5156H59.6518C59.647 16.0232 59.5405 15.5852 59.3322 15.2017C59.1238 14.8134 58.8326 14.508 58.4586 14.2855C58.0893 14.063 57.6584 13.9517 57.166 13.9517C56.6404 13.9517 56.1788 14.0795 55.781 14.3352C55.3833 14.5862 55.0732 14.9176 54.8506 15.3295C54.6328 15.7367 54.5216 16.1842 54.5168 16.6719V18.1846C54.5168 18.8191 54.6328 19.3636 54.8648 19.8182C55.0968 20.268 55.4212 20.6136 55.8379 20.8551C56.2545 21.0918 56.7422 21.2102 57.3009 21.2102C57.675 21.2102 58.0135 21.1581 58.3165 21.054C58.6196 20.9451 58.8824 20.7864 59.1049 20.5781C59.3274 20.3698 59.4955 20.1117 59.6092 19.804L62.0097 20.0738C61.8582 20.7083 61.5694 21.2623 61.1433 21.7358C60.7219 22.2045 60.1821 22.5691 59.5239 22.8295C58.8658 23.0852 58.1129 23.2131 57.2654 23.2131Z" fill="#101828"/><path d="M68.3396 23.1917C67.4826 23.1917 66.7156 22.9716 66.0385 22.5312C65.3614 22.0909 64.8264 21.4517 64.4334 20.6136C64.0404 19.7756 63.8439 18.7576 63.8439 17.5596C63.8439 16.3475 64.0427 15.3248 64.4405 14.4915C64.8429 13.6534 65.3851 13.0213 66.0669 12.5952C66.7487 12.1643 67.5087 11.9488 68.3467 11.9488C68.9859 11.9488 69.5115 12.0577 69.9234 12.2756C70.3354 12.4886 70.6621 12.7467 70.9035 13.0497C71.145 13.348 71.332 13.6297 71.4646 13.8949H71.5712V8.45453H74.1493V23H71.6209V21.2812H71.4646C71.332 21.5464 71.1403 21.8281 70.8893 22.1264C70.6384 22.42 70.307 22.6709 69.895 22.8792C69.4831 23.0876 68.9646 23.1917 68.3396 23.1917ZM69.057 21.0824C69.6015 21.0824 70.0655 20.9356 70.449 20.642C70.8325 20.3437 71.1237 19.9294 71.3226 19.3991C71.5214 18.8688 71.6209 18.2509 71.6209 17.5454C71.6209 16.8399 71.5214 16.2268 71.3226 15.7059C71.1284 15.1851 70.8396 14.7803 70.4561 14.4915C70.0773 14.2026 69.6109 14.0582 69.057 14.0582C68.484 14.0582 68.0058 14.2074 67.6223 14.5057C67.2388 14.804 66.9499 15.2159 66.7558 15.7415C66.5617 16.267 66.4646 16.8684 66.4646 17.5454C66.4646 18.2273 66.5617 18.8357 66.7558 19.3707C66.9547 19.901 67.2459 20.3201 67.6294 20.6278C68.0177 20.9309 68.4935 21.0824 69.057 21.0824Z" fill="#101828"/><path d="M91.1326 8.45453H93.7675V17.9574C93.7675 18.999 93.5213 19.9152 93.0289 20.7059C92.5412 21.4967 91.8547 22.1146 90.9692 22.5596C90.0838 23 89.0493 23.2202 87.8655 23.2202C86.6771 23.2202 85.6402 23 84.7548 22.5596C83.8693 22.1146 83.1828 21.4967 82.6951 20.7059C82.2074 19.9152 81.9636 18.999 81.9636 17.9574V8.45453H84.5985V17.7372C84.5985 18.3433 84.7311 18.883 84.9962 19.3565C85.2661 19.83 85.6449 20.2017 86.1326 20.4716C86.6203 20.7367 87.1979 20.8693 87.8655 20.8693C88.5332 20.8693 89.1108 20.7367 89.5985 20.4716C90.0909 20.2017 90.4697 19.83 90.7349 19.3565C91 18.883 91.1326 18.3433 91.1326 17.7372V8.45453Z" fill="#101828"/><path d="M99.2665 8.45453V23H96.6315V8.45453H99.2665Z" fill="#101828"/></svg>